Coordinates
version=1
nRows=20
nColumns=38
inDegrees=no

Units are S.I. units (second, meters, Newtons, ...)
If the header above contains a line with 'inDegrees', this indicates whether rotational values are in degrees (yes) or radians (no).

endheader
time	pelvis_tilt	pelvis_list	pelvis_rotation	pelvis_tx	pelvis_ty	pelvis_tz	hip_flexion_r	hip_adduction_r	hip_rotation_r	knee_angle_r	ankle_angle_r	subtalar_angle_r	mtp_angle_r	hip_flexion_l	hip_adduction_l	hip_rotation_l	knee_angle_l	ankle_angle_l	subtalar_angle_l	mtp_angle_l	lumbar_extension	lumbar_bending	lumbar_rotation	arm_flex_r	arm_add_r	arm_rot_r	elbow_flex_r	pro_sup_r	wrist_flex_r	wrist_dev_r	arm_flex_l	arm_add_l	arm_rot_l	elbow_flex_l	pro_sup_l	wrist_flex_l	wrist_dev_l
187.74	-2.97122	1.1912	-1.37968	0.873601	-0.535454	1.09363	-0.51359	0.0415651	-0.423811	0.0273294	-0.483075	0	0	-0.421691	-0.111326	-0.0301679	0.216909	-0.239413	0	0	-0.612802	0.0174959	0.292861	-0.547018	-0.43222	-0.345082	1.98537	1.5708	0	0	0.0139744	0.260458	-0.0914227	1.62626	1.5708	0	0
187.75	-3.0013	1.19654	-1.34488	0.872441	-0.534928	1.09361	-0.507311	0.0552731	-0.425514	0.0240614	-0.491058	0	0	-0.409643	-0.124866	-0.0309517	0.226496	-0.232547	0	0	-0.602133	0.0332736	0.291778	-0.550864	-0.421873	-0.374619	2.02961	1.5708	0	0	0.0132135	0.25491	-0.065295	1.64949	1.5708	0	0
187.76	-2.99445	1.16291	-1.16101	0.863915	-0.569436	1.0899	-0.511002	0.143773	-0.564764	0.0438035	-0.495685	0	0	-0.29009	-0.179441	0.246539	0.415651	-0.127779	0	0	-0.692573	0.126243	0.185017	-0.506261	-0.391628	-0.461922	2.1101	1.5708	0	0	0.125534	0.246684	0.00596091	1.67649	1.5708	0	0
187.77	-3.05606	1.0817	-1.52264	0.886107	-0.580043	1.09905	-0.483218	-0.0550663	-0.03276	0.206124	-0.375107	0	0	-0.523599	-0.0242454	-0.173355	0.216332	-0.238969	0	0	-0.828572	-0.0372635	0.501519	-0.508601	-0.530477	-0.622775	2.20379	1.5708	0	0	0.116279	0.396008	0.00592723	1.68837	1.5708	0	0
187.78	-3.07251	1.08549	-1.5241	0.884905	-0.579793	1.09868	-0.471725	-0.0589692	-0.0154916	0.216957	-0.356813	0	0	-0.523599	-0.0199958	-0.195208	0.210429	-0.253237	0	0	-0.822691	-0.0344079	0.517675	-0.508373	-0.530099	-0.659145	2.23568	1.5708	0	0	0.115623	0.401922	0.0292547	1.69945	1.5708	0	0
187.79	-3.07755	1.08647	-1.5243	0.884516	-0.579641	1.09853	-0.469226	-0.0599712	-0.0118057	0.218376	-0.353969	0	0	-0.523599	-0.0192106	-0.20174	0.211151	-0.253506	0	0	-0.820931	-0.0344108	0.524355	-0.499255	-0.525264	-0.687671	2.26084	1.5708	0	0	0.122541	0.401307	0.0549526	1.7096	1.5708	0	0
187.8	-3.02373	1.11238	-1.41768	0.877195	-0.575689	1.09685	-0.501627	-0.000816171	-0.203309	0.141836	-0.401781	0	0	-0.453516	-0.0770126	-0.0233207	0.276557	-0.209053	0	0	-0.786882	0.0184999	0.412198	-0.481169	-0.458247	-0.664449	2.26978	1.5708	0	0	0.157157	0.341202	0.0936024	1.71652	1.5708	0	0
187.81	-3.02646	1.1105	-1.42965	0.878044	-0.575808	1.09702	-0.50016	-0.00713336	-0.186597	0.145302	-0.402258	0	0	-0.459043	-0.0714836	-0.0381255	0.272591	-0.209883	0	0	-0.789794	0.00993014	0.42488	-0.471452	-0.459917	-0.687421	2.28772	1.5708	0	0	0.168196	0.344311	0.117388	1.71963	1.5708	0	0
187.82	-3.0265	1.11257	-1.42754	0.877483	-0.575456	1.09685	-0.499038	-0.00680509	-0.191988	0.144459	-0.402867	0	0	-0.455886	-0.0717538	-0.0348103	0.274842	-0.208463	0	0	-0.786926	0.00907905	0.425582	-0.462639	-0.459151	-0.701717	2.29891	1.5708	0	0	0.180186	0.343313	0.141331	1.71853	1.5708	0	0
187.83	-3.02657	1.11497	-1.42625	0.877008	-0.575161	1.09666	-0.496829	-0.00700431	-0.19618	0.144928	-0.402835	0	0	-0.45249	-0.0716103	-0.0320474	0.276935	-0.206877	0	0	-0.784076	0.00722325	0.427067	-0.453403	-0.460929	-0.711911	2.30402	1.5708	0	0	0.19337	0.343203	0.164669	1.71339	1.5708	0	0
187.84	-3.02745	1.11586	-1.42671	0.87678	-0.575096	1.09655	-0.495663	-0.00773668	-0.196045	0.145204	-0.402387	0	0	-0.451267	-0.0708967	-0.0321014	0.278005	-0.205917	0	0	-0.783694	0.00414466	0.432351	-0.428318	-0.453334	-0.723161	2.30206	1.5708	0	0	0.208222	0.344672	0.18854	1.70437	1.5708	0	0
187.85	-3.02814	1.11904	-1.42781	0.876623	-0.574779	1.09641	-0.492448	-0.00885869	-0.19486	0.144775	-0.402082	0	0	-0.448189	-0.0695335	-0.0316024	0.278056	-0.205756	0	0	-0.780036	-0.000291443	0.435282	-0.429794	-0.467195	-0.723376	2.29767	1.5708	0	0	0.222171	0.345695	0.209624	1.69262	1.5708	0	0
187.86	-3.02899	1.12139	-1.42833	0.876354	-0.574501	1.09629	-0.49006	-0.00975498	-0.19463	0.144645	-0.401827	0	0	-0.44604	-0.0685131	-0.0310336	0.278024	-0.205431	0	0	-0.777239	-0.00420503	0.439793	-0.418679	-0.471554	-0.724067	2.28721	1.5708	0	0	0.237407	0.347664	0.231234	1.67629	1.5708	0	0
187.87	-3.02947	1.12403	-1.42894	0.876047	-0.574189	1.09618	-0.487506	-0.0107491	-0.194676	0.144435	-0.401729	0	0	-0.44366	-0.0673744	-0.0299547	0.277796	-0.205338	0	0	-0.774213	-0.00839329	0.443597	-0.408582	-0.477976	-0.720466	2.27295	1.5708	0	0	0.252943	0.350023	0.251793	1.657	1.5708	0	0
187.88	-3.03007	1.12684	-1.42959	0.875725	-0.573798	1.09606	-0.484785	-0.0118105	-0.194621	0.144326	-0.401567	0	0	-0.441256	-0.0662008	-0.0293616	0.27746	-0.205269	0	0	-0.770994	-0.0126422	0.447308	-0.399575	-0.486099	-0.713178	2.2548	1.5708	0	0	0.268141	0.352905	0.270952	1.63548	1.5708	0	0
187.89	-3.03063	1.12971	-1.43034	0.875364	-0.573352	1.09594	-0.482036	-0.0130032	-0.194758	0.14442	-0.401242	0	0	-0.438905	-0.0649372	-0.0291458	0.277003	-0.205189	0	0	-0.767788	-0.0169322	0.45059	-0.390737	-0.495488	-0.702214	2.23385	1.5708	0	0	0.28272	0.356235	0.288682	1.61211	1.5708	0	0
187.9	-3.03063	1.13278	-1.43144	0.874964	-0.572889	1.09581	-0.479226	-0.0144063	-0.194718	0.144347	-0.400717	0	0	-0.436405	-0.0633669	-0.0283696	0.276412	-0.205201	0	0	-0.763888	-0.0214751	0.454746	-0.383442	-0.504763	-0.689917	2.20998	1.5708	0	0	0.297592	0.360098	0.306329	1.58511	1.5708	0	0
187.91	-3.03065	1.13626	-1.43256	0.874555	-0.572394	1.09568	-0.476084	-0.0158166	-0.193933	0.143763	-0.400526	0	0	-0.433476	-0.0617254	-0.0275464	0.275855	-0.205227	0	0	-0.75957	-0.0264157	0.458698	-0.376588	-0.51502	-0.67496	2.18274	1.5708	0	0	0.311981	0.364299	0.322728	1.55668	1.5708	0	0
187.92	-3.03127	1.13943	-1.43315	0.874171	-0.571953	1.09558	-0.473047	-0.0169568	-0.192904	0.143266	-0.400752	0	0	-0.430755	-0.0604499	-0.0267406	0.275432	-0.205175	0	0	-0.755633	-0.0307639	0.463229	-0.371814	-0.527174	-0.658409	2.15416	1.5708	0	0	0.3261	0.368793	0.338229	1.52683	1.5708	0	0
187.93	-3.03181	1.14253	-1.43352	0.873708	-0.571497	1.09547	-0.469821	-0.0181641	-0.193037	0.143779	-0.400722	0	0	-0.428077	-0.0592181	-0.0256317	0.275098	-0.205088	0	0	-0.751852	-0.03481	0.467613	-0.368416	-0.540092	-0.640601	2.12496	1.5708	0	0	0.33925	0.373328	0.352963	1.4967	1.5708	0	0
